<?xml version="1.0" encoding="utf-8"?>
<!-- Generator: Adobe Illustrator 15.1.0, SVG Export Plug-In . SVG Version: 6.00 Build 0)  -->
<!DOCTYPE svg PUBLIC "-//W3C//DTD SVG 1.1//EN" "http://www.w3.org/Graphics/SVG/1.1/DTD/svg11.dtd">
<svg version="1.1" id="Layer_1" xmlns="http://www.w3.org/2000/svg" xmlns:xlink="http://www.w3.org/1999/xlink" x="0px" y="0px"
	 width="600px" height="231px" viewBox="0 0 600 231" enable-background="new 0 0 600 231" xml:space="preserve">
<g>
	<path fill="#51A5DB" d="M218.945,166.467c0.487,0.489,0.731,1.067,0.731,1.736v9.689c0,0.671-0.244,1.25-0.731,1.736
		c-0.488,0.488-1.067,0.731-1.737,0.731h-16.086v46.89c0,0.672-0.245,1.25-0.731,1.737c-0.489,0.488-1.067,0.731-1.737,0.731H186.68
		c-0.671,0-1.25-0.243-1.737-0.731c-0.488-0.487-0.731-1.065-0.731-1.737v-46.89h-16.087c-0.672,0-1.25-0.243-1.737-0.731
		c-0.489-0.486-0.731-1.065-0.731-1.736v-9.689c0-0.669,0.242-1.247,0.731-1.736c0.487-0.487,1.065-0.73,1.737-0.73h49.083
		C217.878,165.736,218.457,165.979,218.945,166.467z"/>
	<path fill="#51A5DB" d="M243.898,215.094h28.884c0.67,0,1.249,0.244,1.737,0.731c0.487,0.488,0.731,1.066,0.731,1.736v9.688
		c0,0.672-0.245,1.25-0.731,1.737c-0.488,0.488-1.067,0.731-1.737,0.731h-43.325c-0.671,0-1.25-0.243-1.737-0.731
		c-0.488-0.487-0.731-1.065-0.731-1.737v-59.047c0-0.669,0.243-1.247,0.731-1.736c0.487-0.487,1.065-0.73,1.737-0.73h42.594
		c0.669,0,1.248,0.243,1.736,0.73c0.487,0.489,0.731,1.067,0.731,1.736v9.689c0,0.671-0.245,1.25-0.731,1.736
		c-0.488,0.488-1.067,0.731-1.736,0.731h-28.153v9.871h26.142c0.67,0,1.249,0.245,1.737,0.732c0.487,0.487,0.731,1.066,0.731,1.736
		v9.688c0,0.671-0.245,1.249-0.731,1.736c-0.488,0.488-1.067,0.731-1.737,0.731h-26.142V215.094z"/>
	<path fill="#51A5DB" d="M331.097,170.991c4.509,3.505,6.764,8.729,6.764,15.677c0,8.835-3.626,14.93-10.878,18.28l11.335,21.754
		c0.183,0.365,0.275,0.701,0.275,1.006c0,0.548-0.199,1.021-0.595,1.416c-0.397,0.397-0.869,0.595-1.416,0.595h-12.433
		c-1.096,0-1.918-0.229-2.467-0.687c-0.549-0.456-1.006-1.05-1.372-1.782l-10.146-19.561h-8.409v19.561
		c0,0.672-0.244,1.25-0.731,1.737c-0.488,0.488-1.067,0.731-1.737,0.731h-11.974c-0.671,0-1.25-0.243-1.737-0.731
		c-0.488-0.487-0.731-1.065-0.731-1.737v-59.047c0-0.669,0.243-1.247,0.731-1.736c0.487-0.487,1.065-0.73,1.737-0.73h24.771
		C320.25,165.736,326.587,167.488,331.097,170.991z M312.085,193.431c5.91,0,8.865-2.254,8.865-6.763
		c0-4.51-2.955-6.765-8.865-6.765h-10.329v13.527H312.085z"/>
	<path fill="#51A5DB" d="M364.368,196.996v30.254c0,0.672-0.246,1.25-0.732,1.737c-0.487,0.488-1.066,0.731-1.737,0.731h-11.974
		c-0.671,0-1.249-0.243-1.737-0.731c-0.487-0.487-0.729-1.065-0.729-1.737v-59.047c0-0.669,0.242-1.247,0.729-1.736
		c0.488-0.487,1.066-0.73,1.737-0.73h10.603c1.706,0,3.017,0.822,3.932,2.467l14.807,25.319l14.807-25.319
		c0.915-1.645,2.226-2.467,3.932-2.467h10.603c0.671,0,1.249,0.243,1.737,0.73c0.485,0.489,0.731,1.067,0.731,1.736v59.047
		c0,0.672-0.246,1.25-0.731,1.737c-0.488,0.488-1.066,0.731-1.737,0.731h-11.975c-0.671,0-1.249-0.243-1.734-0.731
		c-0.49-0.487-0.732-1.065-0.732-1.737v-30.254l-8.592,15.081c-0.427,0.672-0.901,1.22-1.417,1.646
		c-0.519,0.428-1.174,0.64-1.965,0.64h-5.85c-0.793,0-1.45-0.212-1.966-0.64c-0.519-0.426-0.991-0.974-1.416-1.646L364.368,196.996z
		"/>
	<path fill="#69C292" d="M471.309,168.66c0.974-1.949,2.315-2.924,4.021-2.924h3.475c0.669,0,1.247,0.243,1.735,0.73
		c0.488,0.489,0.732,1.067,0.732,1.736v59.047c0,0.672-0.244,1.25-0.732,1.737c-0.488,0.488-1.066,0.731-1.735,0.731h-3.748
		c-0.671,0-1.249-0.243-1.737-0.731c-0.487-0.487-0.729-1.065-0.729-1.737v-43.325l-14.261,27.513
		c-0.487,0.976-1.021,1.707-1.6,2.194c-0.58,0.487-1.294,0.73-2.148,0.73h-3.472c-0.854,0-1.57-0.243-2.148-0.73
		c-0.581-0.487-1.112-1.219-1.6-2.194l-14.259-27.513v43.325c0,0.672-0.243,1.25-0.731,1.737c-0.488,0.488-1.066,0.731-1.737,0.731
		h-3.746c-0.673,0-1.251-0.243-1.737-0.731c-0.488-0.487-0.731-1.065-0.731-1.737v-59.047c0-0.669,0.243-1.247,0.731-1.736
		c0.486-0.487,1.064-0.73,1.737-0.73h3.473c1.706,0,3.046,0.975,4.021,2.924l18.465,35.739L471.309,168.66z"/>
	<path fill="#69C292" d="M504.764,221.492h30.712c0.669,0,1.247,0.244,1.735,0.731c0.487,0.487,0.731,1.066,0.731,1.736v3.29
		c0,0.672-0.244,1.25-0.731,1.737c-0.488,0.488-1.066,0.731-1.735,0.731h-36.928c-0.673,0-1.251-0.243-1.737-0.731
		c-0.487-0.487-0.731-1.065-0.731-1.737v-59.047c0-0.669,0.244-1.247,0.731-1.736c0.486-0.487,1.064-0.73,1.737-0.73h36.195
		c0.669,0,1.247,0.243,1.737,0.73c0.486,0.489,0.73,1.067,0.73,1.736v3.29c0,0.672-0.244,1.251-0.73,1.737
		c-0.49,0.488-1.068,0.731-1.737,0.731h-29.979v19.286h27.969c0.669,0,1.247,0.244,1.737,0.731c0.486,0.488,0.73,1.066,0.73,1.736
		v3.291c0,0.672-0.244,1.25-0.73,1.737c-0.49,0.487-1.068,0.73-1.737,0.73h-27.969V221.492z"/>
	<path fill="#69C292" d="M595.525,218.155c-2.193,3.748-5.21,6.613-9.048,8.592c-3.839,1.981-8.258,2.972-13.253,2.972h-21.48
		c-0.671,0-1.249-0.243-1.737-0.731c-0.488-0.487-0.73-1.065-0.73-1.737v-59.047c0-0.669,0.242-1.247,0.73-1.736
		c0.488-0.487,1.066-0.73,1.737-0.73h20.932c5.057,0,9.552,0.99,13.481,2.971c3.931,1.979,7.023,4.844,9.278,8.592
		c2.252,3.747,3.411,8.15,3.473,13.207c0.061,1.828,0.092,4.236,0.092,7.221c0,2.986-0.031,5.393-0.092,7.222
		C598.847,210.007,597.72,214.408,595.525,218.155z M557.959,173.962v47.53h14.808c6.093,0,10.496-1.585,13.209-4.753
		c2.709-3.168,4.126-7.251,4.25-12.249c0.059-1.827,0.09-4.081,0.09-6.764c0-2.681-0.031-4.936-0.09-6.763
		c-0.124-4.937-1.615-9.004-4.48-12.203c-2.864-3.199-7.342-4.799-13.436-4.799H557.959z"/>
	<path fill="#51A5DB" d="M78.76,121.392v16.255v48.764c0,2.724,1.142,5.184,2.9,6.941c1.844,1.757,4.305,2.9,6.941,2.9h32.509
		c2.723,0,5.184-1.144,6.94-2.9c1.758-1.758,2.901-4.218,2.901-6.941v-48.764c0-3.514,2.898-6.416,6.412-6.416h48.766
		c2.725,0,5.184-1.141,6.941-2.898c1.756-1.756,2.898-4.218,2.898-6.94v-32.51c0-2.636-1.142-5.095-2.898-6.941
		c-1.758-1.758-4.217-2.9-6.941-2.9h-38.133V66.212h38.133c6.24,0,11.949,2.548,15.991,6.68c4.13,4.129,6.678,9.752,6.678,15.99
		v32.51c0,6.239-2.548,11.949-6.678,15.99c-4.042,4.13-9.751,6.679-15.991,6.679h-42.351v42.35c0,6.237-2.548,11.861-6.677,15.991
		c-4.042,4.132-9.754,6.678-15.992,6.678H88.601c-6.239,0-11.861-2.546-15.991-6.678c-4.129-4.13-6.678-9.754-6.678-15.991v-48.764
		v-16.255c0-15.201,6.238-28.994,16.253-38.923c9.929-10.018,23.725-16.257,38.924-16.257h5.624V79.04h-5.624
		c-11.598,0-22.23,4.834-29.873,12.478C83.591,99.161,78.76,109.793,78.76,121.392z"/>
	<path fill="#69C292" d="M130.951,88.882V72.628V23.952c0-2.726-1.144-5.185-2.901-6.942c-1.756-1.848-4.217-2.902-6.94-2.902
		H88.601c-2.636,0-5.097,1.055-6.941,2.902c-1.758,1.758-2.9,4.217-2.9,6.942v48.676c0,3.601-2.812,6.412-6.414,6.412H23.668
		c-2.724,0-5.184,1.143-6.941,2.9c-1.844,1.847-2.898,4.306-2.898,6.941v32.51c0,2.723,1.054,5.185,2.898,6.94
		c1.758,1.758,4.217,2.898,6.941,2.898h38.047v12.83H23.668c-6.238,0-11.949-2.549-16.078-6.679C3.548,133.341,1,127.631,1,121.392
		v-32.51c0-6.238,2.548-11.861,6.591-15.99c4.128-4.132,9.84-6.68,16.078-6.68h42.264v-42.26c0-6.326,2.548-11.951,6.678-16.079
		c4.13-4.042,9.751-6.592,15.991-6.592h32.509c6.238,0,11.95,2.55,15.992,6.592c4.129,4.128,6.677,9.753,6.677,16.079v48.676v16.254
		c0,15.201-6.149,28.995-16.167,39.011c-10.015,10.016-23.812,16.168-39.011,16.168h-5.538v-12.83h5.538
		c11.685,0,22.228-4.744,29.961-12.475C126.206,111.112,130.951,100.567,130.951,88.882z"/>
</g>
</svg>
